# xmcd
# 
# Track frame offsets:
#     150
#     17552
#     30137
#     41462
#     51712
#     64737
#     76737
#     86862
#     109750
#     118650
#     128637
#     142137
#     154700
#     163962
#     173625
#     188062
#     199112
#     209000
#     218850
#     236750
#     247600
# 
# Disc length: 3492
# 
# Revision: 1
# Processed by: cddbd v1.5.2PL0 Copyright (c) Steve Scherf et al.
# Submitted via: BonkEnc v1.0.5
# 
DISCID=230da215
DTITLE=Various Artist - Trucking Greats
DYEAR=0
DGENRE=
TTITLE0=Convoy
TTITLE1=Eighteen Wheels (Humming Home Sweet Home)
TTITLE2=How Fast Them Trucks Can Go
TTITLE3=Movin' On
TTITLE4=Me And Old C.B.
TTITLE5=Ode To 10-33
TTITLE6=Six Days On The Road
TTITLE7=Teddy Bear
TTITLE8=Truck Drivin' Man
TTITLE9=Rhythm Of The Road
TTITLE10=Big City
TTITLE11=Freightliner Fever
TTITLE12=Hold Everything
TTITLE13=I'll have Another Cup Of Coffee
TTITLE14=Phantom 309
TTITLE15=Tennessee Is Home To Me
TTITLE16=Dixie Winds
TTITLE17=Trucker's Way Of Life
TTITLE18=Wolf Creek Pass
TTITLE19=Trucker's Lady
TTITLE20=Highway 40 Blues
EXTD=
EXTT0=
EXTT1=
EXTT2=
EXTT3=
EXTT4=
EXTT5=
EXTT6=
EXTT7=
EXTT8=
EXTT9=
EXTT10=
EXTT11=
EXTT12=
EXTT13=
EXTT14=
EXTT15=
EXTT16=
EXTT17=
EXTT18=
EXTT19=
EXTT20=
PLAYORDER=
